<?xml version="1.0" encoding="UTF-8"?>
<svg xmlns="http://www.w3.org/2000/svg" xmlns:xlink="http://www.w3.org/1999/xlink" width="48px" height="48px" viewBox="0 0 48 48" version="1.1">
<defs>
<radialGradient id="radial0" gradientUnits="userSpaceOnUse" cx="937.049988" cy="28.011999" fx="937.049988" fy="28.011999" r="129.820007" gradientTransform="matrix(0.223412,0,0,0.290412,-185.346245,5.28875)">
<stop offset="0" style="stop-color:rgb(50.196078%,77.647059%,92.941176%);stop-opacity:1;"/>
<stop offset="1" style="stop-color:rgb(20.392157%,47.843137%,63.137255%);stop-opacity:1;"/>
</radialGradient>
<filter id="alpha" filterUnits="objectBoundingBox" x="0%" y="0%" width="100%" height="100%">
  <feColorMatrix type="matrix" in="SourceGraphic" values="0 0 0 0 1 0 0 0 0 1 0 0 0 0 1 0 0 0 1 0"/>
</filter>
<mask id="mask0">
  <g filter="url(#alpha)">
<rect x="0" y="0" width="48" height="48" style="fill:rgb(0%,0%,0%);fill-opacity:0.2;stroke:none;"/>
  </g>
</mask>
<clipPath id="clip1">
  <rect x="0" y="0" width="48" height="48"/>
</clipPath>
<g id="surface5" clip-path="url(#clip1)">
<path style=" stroke:none;fill-rule:nonzero;fill:rgb(100%,100%,100%);fill-opacity:1;" d="M 11.222656 24.042969 C 11.097656 24.585938 11.035156 25.144531 11.035156 25.707031 C 11.035156 29.988281 14.503906 33.597656 18.789062 33.769531 C 19.921875 33.8125 21.039062 33.605469 22.066406 33.164062 L 21.363281 32.042969 L 20.910156 32.066406 C 20.761719 32.074219 20.613281 32.078125 20.464844 32.078125 C 19.875 32.085938 19.308594 32.046875 18.765625 31.964844 C 18.628906 31.945312 18.496094 31.921875 18.363281 31.894531 C 18.230469 31.871094 18.101562 31.839844 17.972656 31.808594 C 17.84375 31.777344 17.714844 31.742188 17.589844 31.707031 C 17.464844 31.667969 17.339844 31.628906 17.21875 31.585938 C 17.09375 31.546875 16.972656 31.5 16.855469 31.453125 C 16.734375 31.40625 16.617188 31.355469 16.503906 31.300781 C 16.386719 31.25 16.273438 31.195312 16.160156 31.136719 C 16.046875 31.078125 15.9375 31.015625 15.828125 30.953125 C 15.71875 30.890625 15.613281 30.824219 15.507812 30.757812 C 15.296875 30.621094 15.09375 30.472656 14.898438 30.316406 C 14.605469 30.082031 14.328125 29.824219 14.066406 29.550781 C 12.941406 28.363281 12.125 26.820312 11.546875 25.039062 Z M 36.777344 24.042969 L 36.453125 25.039062 C 35.871094 26.820312 35.058594 28.363281 33.929688 29.550781 C 33.671875 29.824219 33.394531 30.082031 33.101562 30.316406 C 32.902344 30.472656 32.699219 30.621094 32.488281 30.757812 C 32.382812 30.824219 32.277344 30.890625 32.167969 30.953125 C 32.058594 31.015625 31.949219 31.078125 31.835938 31.136719 C 31.726562 31.195312 31.609375 31.25 31.496094 31.300781 C 31.378906 31.355469 31.261719 31.40625 31.144531 31.453125 C 31.023438 31.5 30.902344 31.546875 30.78125 31.585938 C 30.65625 31.628906 30.535156 31.667969 30.40625 31.707031 C 30.28125 31.742188 30.15625 31.777344 30.027344 31.808594 C 29.898438 31.839844 29.765625 31.871094 29.632812 31.894531 C 29.5 31.921875 29.367188 31.945312 29.230469 31.964844 C 28.691406 32.046875 28.125 32.085938 27.535156 32.078125 C 27.386719 32.078125 27.238281 32.074219 27.085938 32.066406 L 26.632812 32.042969 L 25.933594 33.164062 C 26.957031 33.605469 28.074219 33.8125 29.210938 33.769531 C 33.492188 33.597656 36.964844 29.988281 36.964844 25.707031 C 36.960938 25.144531 36.898438 24.585938 36.777344 24.042969 Z M 36.777344 24.042969 "/>
</g>
<mask id="mask1">
  <g filter="url(#alpha)">
<rect x="0" y="0" width="48" height="48" style="fill:rgb(0%,0%,0%);fill-opacity:0.301961;stroke:none;"/>
  </g>
</mask>
<linearGradient id="linear0" gradientUnits="userSpaceOnUse" x1="935.390015" y1="-51.138" x2="935.390015" y2="192.600006" gradientTransform="matrix(0.125,0,0,0.125,-93.131248,12.057375)">
<stop offset="0" style="stop-color:rgb(100%,100%,100%);stop-opacity:1;"/>
<stop offset="1" style="stop-color:rgb(100%,100%,100%);stop-opacity:0;"/>
</linearGradient>
<clipPath id="clip2">
  <rect x="0" y="0" width="48" height="48"/>
</clipPath>
<g id="surface8" clip-path="url(#clip2)">
<path style=" stroke:none;fill-rule:nonzero;fill:url(#linear0);" d="M 37.039062 16.429688 C 37.039062 9.242188 31.210938 3.414062 24.019531 3.414062 C 16.832031 3.414062 11.003906 9.242188 11.003906 16.429688 C 11.003906 23.621094 16.832031 29.449219 24.019531 29.449219 C 31.210938 29.449219 37.039062 23.621094 37.039062 16.429688 Z M 37.039062 16.429688 "/>
</g>
<mask id="mask2">
  <g filter="url(#alpha)">
<rect x="0" y="0" width="48" height="48" style="fill:rgb(0%,0%,0%);fill-opacity:0.501961;stroke:none;"/>
  </g>
</mask>
<clipPath id="clip3">
  <rect x="0" y="0" width="48" height="48"/>
</clipPath>
<g id="surface11" clip-path="url(#clip3)">
<path style=" stroke:none;fill-rule:nonzero;fill:rgb(0%,0%,0%);fill-opacity:1;" d="M 11.539062 24.5 C 13.109375 29.257812 16.105469 31.957031 21.289062 31.492188 C 20.21875 27.644531 15.449219 24.660156 11.539062 24.5 Z M 36.386719 24.5 C 32.472656 24.660156 27.707031 27.644531 26.632812 31.492188 C 31.820312 31.957031 34.816406 29.257812 36.386719 24.5 Z M 36.386719 24.5 "/>
</g>
<mask id="mask3">
  <g filter="url(#alpha)">
<rect x="0" y="0" width="48" height="48" style="fill:rgb(0%,0%,0%);fill-opacity:0.301961;stroke:none;"/>
  </g>
</mask>
<clipPath id="clip4">
  <rect x="0" y="0" width="48" height="48"/>
</clipPath>
<g id="surface14" clip-path="url(#clip4)">
<path style=" stroke:none;fill-rule:nonzero;fill:rgb(0%,0%,0%);fill-opacity:1;" d="M 24 41.433594 C 22.605469 41.4375 21.355469 42.292969 20.851562 43.59375 C 22.675781 44.675781 23.953125 45.09375 24 45.09375 C 24 45.09375 25.265625 44.609375 27.085938 43.449219 C 26.546875 42.226562 25.335938 41.4375 24 41.433594 Z M 24 41.433594 "/>
</g>
<mask id="mask4">
  <g filter="url(#alpha)">
<rect x="0" y="0" width="48" height="48" style="fill:rgb(0%,0%,0%);fill-opacity:0.301961;stroke:none;"/>
  </g>
</mask>
<clipPath id="clip5">
  <rect x="0" y="0" width="48" height="48"/>
</clipPath>
<g id="surface17" clip-path="url(#clip5)">
<path style=" stroke:none;fill-rule:nonzero;fill:rgb(0%,0%,0%);fill-opacity:1;" d="M 7.78125 19.246094 C 7.777344 19.367188 7.777344 19.492188 7.777344 19.613281 C 7.777344 39.378906 23.835938 45.09375 24.003906 45.09375 C 24.003906 45.09375 40.230469 39.519531 40.230469 19.613281 C 40.230469 19.492188 40.226562 19.375 40.226562 19.253906 C 39.914062 38.691406 24.003906 44.15625 24.003906 44.15625 C 23.835938 44.15625 8.085938 38.550781 7.78125 19.246094 Z M 7.78125 19.246094 "/>
</g>
<mask id="mask5">
  <g filter="url(#alpha)">
<rect x="0" y="0" width="48" height="48" style="fill:rgb(0%,0%,0%);fill-opacity:0.301961;stroke:none;"/>
  </g>
</mask>
<clipPath id="clip6">
  <rect x="0" y="0" width="48" height="48"/>
</clipPath>
<g id="surface20" clip-path="url(#clip6)">
<path style=" stroke:none;fill-rule:nonzero;fill:rgb(100%,100%,100%);fill-opacity:1;" d="M 24 2.90625 C 16.714844 2.90625 7.773438 9.644531 7.773438 19.613281 C 7.773438 19.804688 7.773438 19.996094 7.777344 20.183594 C 7.910156 14.199219 11.269531 9.414062 15.503906 6.605469 C 17.867188 4.554688 20.890625 3.417969 24.019531 3.414062 C 27.277344 3.417969 30.410156 4.644531 32.808594 6.847656 C 36.898438 9.703125 40.09375 14.410156 40.222656 20.191406 C 40.226562 20 40.226562 19.808594 40.226562 19.613281 C 40.226562 9.746094 31.285156 2.90625 24 2.90625 Z M 24 2.90625 "/>
</g>
</defs>
<g id="surface1">
<path style=" stroke:none;fill-rule:nonzero;fill:url(#radial0);" d="M 40.230469 19.613281 C 40.230469 39.519531 24.003906 45.09375 24.003906 45.09375 C 23.835938 45.09375 7.777344 39.378906 7.777344 19.613281 C 7.777344 9.644531 16.71875 2.90625 24.003906 2.90625 C 31.289062 2.90625 40.230469 9.742188 40.230469 19.613281 Z M 40.230469 19.613281 "/>
<use xlink:href="#surface5" mask="url(#mask0)"/>
<use xlink:href="#surface8" mask="url(#mask1)"/>
<path style=" stroke:none;fill-rule:nonzero;fill:rgb(8.235294%,21.960784%,45.09804%);fill-opacity:1;" d="M 11.257812 24.234375 L 11.683594 25.519531 C 12.257812 27.253906 13.058594 28.742188 14.171875 29.871094 C 14.425781 30.132812 14.699219 30.371094 14.988281 30.59375 C 15.183594 30.738281 15.382812 30.875 15.589844 31.003906 C 15.695312 31.066406 15.800781 31.128906 15.90625 31.183594 C 16.015625 31.242188 16.125 31.300781 16.234375 31.351562 C 16.34375 31.40625 16.457031 31.453125 16.570312 31.503906 C 16.6875 31.550781 16.800781 31.59375 16.917969 31.636719 C 17.035156 31.679688 17.15625 31.71875 17.277344 31.757812 C 17.398438 31.792969 17.519531 31.828125 17.644531 31.859375 C 17.769531 31.890625 17.894531 31.917969 18.019531 31.945312 C 18.148438 31.972656 18.277344 31.996094 18.40625 32.015625 C 18.539062 32.035156 18.671875 32.054688 18.804688 32.066406 C 19.339844 32.128906 19.898438 32.144531 20.480469 32.113281 C 20.625 32.105469 20.769531 32.097656 20.917969 32.082031 L 21.367188 32.042969 L 22.097656 33.179688 C 22.105469 32.78125 22.066406 32.378906 21.996094 31.988281 L 22.042969 31.984375 L 21.738281 30.898438 C 21.207031 28.988281 19.816406 27.402344 18.148438 26.253906 C 18.144531 26.25 18.140625 26.246094 18.136719 26.242188 C 17.929688 26.101562 17.714844 25.964844 17.496094 25.832031 C 17.386719 25.769531 17.277344 25.703125 17.167969 25.644531 C 17.058594 25.582031 16.945312 25.523438 16.832031 25.464844 C 16.71875 25.40625 16.605469 25.351562 16.492188 25.296875 C 16.378906 25.242188 16.265625 25.191406 16.148438 25.140625 C 16.035156 25.089844 15.917969 25.042969 15.804688 24.996094 C 15.6875 24.949219 15.570312 24.90625 15.453125 24.863281 C 15.335938 24.824219 15.21875 24.78125 15.101562 24.746094 C 14.980469 24.707031 14.863281 24.671875 14.746094 24.640625 C 14.628906 24.605469 14.507812 24.574219 14.390625 24.546875 C 13.796875 24.402344 13.199219 24.3125 12.613281 24.289062 Z M 36.746094 24.234375 L 35.390625 24.289062 C 34.101562 24.34375 32.761719 24.703125 31.511719 25.296875 C 31.28125 25.40625 31.058594 25.519531 30.835938 25.644531 C 30.503906 25.828125 30.179688 26.027344 29.867188 26.242188 C 29.863281 26.246094 29.859375 26.25 29.855469 26.253906 C 28.1875 27.402344 26.796875 28.984375 26.265625 30.898438 L 25.960938 31.984375 L 26.007812 31.988281 C 25.933594 32.378906 25.898438 32.78125 25.90625 33.179688 L 26.636719 32.042969 L 27.082031 32.082031 C 28.121094 32.175781 29.089844 32.128906 29.980469 31.945312 C 30.363281 31.867188 30.730469 31.765625 31.085938 31.636719 C 31.203125 31.59375 31.316406 31.550781 31.433594 31.503906 C 32.003906 31.265625 32.53125 30.960938 33.015625 30.59375 C 33.113281 30.519531 33.207031 30.445312 33.300781 30.367188 C 34.691406 29.195312 35.660156 27.519531 36.320312 25.519531 Z M 36.746094 24.234375 "/>
<use xlink:href="#surface11" mask="url(#mask2)"/>
<use xlink:href="#surface14" mask="url(#mask3)"/>
<use xlink:href="#surface17" mask="url(#mask4)"/>
<use xlink:href="#surface20" mask="url(#mask5)"/>
</g>
</svg>
